<?xml version="1.0" encoding="UTF-8"?>
<svg id="Layer_1" data-name="Layer 1" xmlns="http://www.w3.org/2000/svg" viewBox="0 0 2200 400">
  <defs>
    <style>
      .cls-1 {
        fill: #231f20;
      }

      .cls-2 {
        fill: #b77c4a;
      }
    </style>
  </defs>
  <g>
    <polygon class="cls-2" points="152.59 128.1 208.4 128.1 286.5 213.4 230 213.4 152.59 128.1"/>
    <polygon class="cls-2" points="230.26 213.23 174.45 213.23 96.35 298.53 152.86 298.53 230.26 213.23"/>
    <polygon class="cls-2" points="342.17 213.23 286.36 213.23 208.26 298.53 264.76 298.53 342.17 213.23"/>
  </g>
  <g>
    <path class="cls-1" d="M478.75,168.69c-9.67-12.9-21.08-14.14-27.03-14.14-17.36,0-22.82,10.91-22.82,19.34,0,3.97,1.24,7.69,5.21,11.16,3.97,3.72,9.42,5.7,19.84,9.42,12.9,4.46,25.05,8.93,33.48,16.62,7.44,6.7,14.14,17.86,14.14,34.72,0,32.24-23.31,54.31-57.54,54.31-30.5,0-48.36-18.6-57.04-31.25l21.08-20.09c7.94,16.12,23.06,22.07,34.72,22.07,14.63,0,25.54-8.93,25.54-22.82,0-5.95-1.98-10.66-6.45-14.88-6.2-5.7-16.12-8.93-25.54-12.15-8.68-2.98-19.1-6.94-27.53-14.38-5.46-4.71-13.14-13.89-13.14-30.75,0-24.3,16.37-48.61,53.07-48.61,10.42,0,30.01,1.98,46.87,19.34l-16.86,22.07Z"/>
    <path class="cls-1" d="M621.6,158.77h-59.52v36.95h57.04v27.78h-57.04v45.14h59.52v27.78h-91.76v-165.42h91.76v27.78Z"/>
    <path class="cls-1" d="M685.08,131v137.64h51.09v27.78h-83.33v-165.42h32.24Z"/>
    <path class="cls-1" d="M758,131l44.14,111.1,44.14-111.1h35.22l-69.94,165.42h-19.34l-69.44-165.42h35.22Z"/>
    <path class="cls-1" d="M983.43,261.69h-66.71l-14.63,34.72h-34.97l71.18-165.42h25.3l69.19,165.42h-34.72l-14.63-34.72ZM974,235.41l-23.56-59.52-23.56,59.52h47.12Z"/>
    <path class="cls-1" d="M1128.51,207.88h75.89v1.98c0,11.16-1.49,45.88-24.3,68.45-17.11,17.11-38.19,21.82-58.78,21.82s-41.91-4.22-60.02-22.32c-5.7-5.7-24.55-26.54-24.55-63.74,0-31.99,14.38-51.58,24.3-61.5,12.4-12.65,33.23-25.3,65.22-25.3,12.4,0,25.54,1.98,38.19,8.68,10.66,5.46,22.32,15.38,31,30.26l-28.02,15.13c-5.7-11.16-14.14-16.86-19.34-19.59-6.94-3.47-15.62-5.21-23.31-5.21-13.14,0-28.02,4.71-38.19,14.63-9.42,9.18-16.62,25.05-16.62,43.65,0,22.07,9.42,35.22,16.37,41.91,7.44,7.19,19.1,14.14,36.7,14.14,10.91,0,23.31-2.98,32.49-9.92,6.45-4.96,12.9-13.39,15.62-25.3h-42.66v-27.78Z"/>
    <path class="cls-1" d="M1317.98,207.88h75.89v1.98c0,11.16-1.49,45.88-24.3,68.45-17.11,17.11-38.19,21.82-58.78,21.82s-41.91-4.22-60.02-22.32c-5.7-5.7-24.55-26.54-24.55-63.74,0-31.99,14.38-51.58,24.3-61.5,12.4-12.65,33.23-25.3,65.22-25.3,12.4,0,25.54,1.98,38.19,8.68,10.66,5.46,22.32,15.38,31,30.26l-28.02,15.13c-5.7-11.16-14.14-16.86-19.34-19.59-6.94-3.47-15.62-5.21-23.31-5.21-13.14,0-28.02,4.71-38.19,14.63-9.42,9.18-16.62,25.05-16.62,43.65,0,22.07,9.42,35.22,16.37,41.91,7.44,7.19,19.1,14.14,36.7,14.14,10.91,0,23.31-2.98,32.49-9.92,6.45-4.96,12.9-13.39,15.62-25.3h-42.66v-27.78Z"/>
    <path class="cls-1" d="M1455.86,131v165.42h-32.24v-165.42h32.24Z"/>
    <path class="cls-1" d="M1592.26,131c9.18,0,27.03,0,40.42,10.42,9.67,7.44,15.38,20.34,15.38,34.22,0,21.33-14.14,30.01-18.6,32.49,10.91,1.74,17.36,6.45,21.58,10.42,9.92,9.42,11.9,22.32,11.9,31,0,9.67-2.73,23.31-14.14,33.48-12.4,10.91-27.53,13.39-41.91,13.39h-55.55v-165.42h40.92ZM1583.58,199.69h9.18c4.96,0,25.05-.5,25.05-21.58,0-15.13-11.66-20.83-24.8-20.83h-9.42v42.41ZM1583.58,270.13h13.89c5.95,0,14.88-.25,22.07-4.46,7.94-4.71,10.17-12.65,10.17-19.1,0-5.21-1.74-14.14-12.15-18.85-6.94-3.22-15.13-3.22-22.07-3.22h-11.9v45.63Z"/>
    <path class="cls-1" d="M1724.94,131v103.91c0,12.65,4.22,20.34,7.94,24.55,4.71,5.7,13.39,11.41,26.29,11.41s21.58-5.7,26.29-11.41c3.72-4.22,7.94-11.9,7.94-24.55v-103.91h32.24v101.18c0,15.62-2.48,31.5-12.4,44.14-11.9,15.62-32.74,23.81-54.06,23.81s-42.16-8.18-54.06-23.81c-9.92-12.65-12.4-28.52-12.4-44.14v-101.18h32.24Z"/>
    <path class="cls-1" d="M1895.56,131v165.42h-32.24v-165.42h32.24Z"/>
    <path class="cls-1" d="M1965.49,131v137.64h51.09v27.78h-83.33v-165.42h32.24Z"/>
    <path class="cls-1" d="M2086.52,158.77v137.64h-32.24v-137.64h-37.2v-27.78h106.64v27.78h-37.2Z"/>
  </g>
</svg>